<?xml version="1.0" standalone="no"?><!DOCTYPE svg PUBLIC "-//W3C//DTD SVG 1.1//EN" "http://www.w3.org/Graphics/SVG/1.1/DTD/svg11.dtd"><svg t="1542982094179" class="icon" style="" viewBox="0 0 1024 1024" version="1.1" xmlns="http://www.w3.org/2000/svg" p-id="1526" xmlns:xlink="http://www.w3.org/1999/xlink" width="200" height="200"><defs><style type="text/css"></style></defs><path d="M495.4 298.7c-92.7 0-168.1 75.4-168.1 168.1s75.4 168.1 168.1 168.1 168.1-75.4 168.1-168.1-75.4-168.1-168.1-168.1z m0 276.1c-59.6 0-108.1-48.5-108.1-108.1s48.5-108.1 108.1-108.1c59.6 0 108.1 48.5 108.1 108.1S555 574.8 495.4 574.8z m347.9-255c-19-45-46.2-85.3-80.9-120s-75-61.9-120-80.9c-46.6-19.7-96-29.7-147-29.7s-100.4 10-147 29.7c-45 19-85.3 46.2-120 80.9s-61.9 75-80.9 120c-19.7 46.6-29.7 96-29.7 147 0 49.7 13.1 102.7 38.8 157.6 21.3 45.3 51.4 92.3 89.5 139.7C325.7 863 413.6 932 438.7 950.7c16.2 12.1 36.8 18.2 57.3 18.2 20.7 0 41.3-6.2 57.2-18.5 33.5-25.9 119.2-96.2 193.1-188.2C830.3 657.5 873 558.1 873 466.7c0-50.9-10-100.4-29.7-146.9zM516.4 902.9c-10.2 7.9-30.9 7.8-41.7-0.3-48.7-36.5-122.1-102-181.8-176.2-75.3-93.6-115.1-183.4-115.1-259.7 0-175.1 142.5-317.6 317.6-317.6S813 291.6 813 466.7c0 196.4-247.1 397.9-296.6 436.2z" p-id="1527" fill="#ffffff"></path></svg>