<?xml version="1.0" standalone="no"?><!DOCTYPE svg PUBLIC "-//W3C//DTD SVG 1.1//EN" "http://www.w3.org/Graphics/SVG/1.1/DTD/svg11.dtd"><svg t="1542025774623" class="icon" style="" viewBox="0 0 1024 1024" version="1.1" xmlns="http://www.w3.org/2000/svg" p-id="3162" xmlns:xlink="http://www.w3.org/1999/xlink" width="16" height="16"><defs><style type="text/css"></style></defs><path d="M669.103 367.838c10.238 0 20.366 0.75 30.413 1.87-27.328-127.25-163.368-221.792-318.656-221.792-173.605 0-315.816 118.336-315.816 268.6 0 86.735 47.312 157.962 126.375 213.206l-31.587 95.004 110.404-55.364c39.504 7.82 71.2 15.861 110.623 15.861 9.91 0 19.74-0.491 29.485-1.257-6.17-21.116-9.746-43.231-9.746-66.175 0.001-137.978 118.486-249.953 268.505-249.953z m-169.81-85.63c23.778 0 39.53 15.644 39.53 39.41 0 23.669-15.752 39.531-39.53 39.531-23.672 0-47.423-15.86-47.423-39.531 0-23.765 23.751-39.41 47.422-39.41zM278.263 361.15c-23.67 0-47.558-15.86-47.558-39.531 0-23.766 23.887-39.41 47.558-39.41 23.67 0 39.422 15.644 39.422 39.41 0 23.67-15.753 39.531-39.422 39.531z" fill="#8a8a8a" p-id="3163"></path><path d="M957.344 613.996c0-126.267-126.347-229.19-268.257-229.19-150.265 0-268.612 102.924-268.612 229.19 0 126.485 118.347 229.19 268.612 229.19 31.451 0 63.174-7.93 94.762-15.847l86.624 47.434-23.752-78.925c63.393-47.56 110.623-110.625 110.623-181.852z m-355.348-39.518c-15.725 0-31.586-15.643-31.586-31.602 0-15.737 15.861-31.586 31.586-31.586 23.891 0 39.534 15.849 39.534 31.586 0 15.959-15.643 31.602-39.534 31.602z m173.717 0c-15.617 0-31.369-15.643-31.369-31.602 0-15.737 15.753-31.586 31.369-31.586 23.669 0 39.531 15.849 39.531 31.586 0 15.959-15.862 31.602-39.531 31.602z" fill="#8a8a8a" p-id="3164"></path></svg>