<?xml version="1.0" standalone="no"?><!DOCTYPE svg PUBLIC "-//W3C//DTD SVG 1.1//EN" "http://www.w3.org/Graphics/SVG/1.1/DTD/svg11.dtd"><svg t="1542982147759" class="icon" style="" viewBox="0 0 1024 1024" version="1.1" xmlns="http://www.w3.org/2000/svg" p-id="1681" xmlns:xlink="http://www.w3.org/1999/xlink" width="200" height="200"><defs><style type="text/css"></style></defs><path d="M838 835.5H186c-49.6 0-90-40.4-90-90v-455c0-49.6 40.4-90 90-90h652c49.6 0 90 40.4 90 90v455c0 49.6-40.4 90-90 90z m-652-575c-16.5 0-30 13.5-30 30v455c0 16.5 13.5 30 30 30h652c16.5 0 30-13.5 30-30v-455c0-16.5-13.5-30-30-30H186z m323.3 343c-6.3 0-12.6-2-18-6L122.4 320.7c-13.3-9.9-15.9-28.8-6-42 9.9-13.3 28.8-15.9 42-6l368.9 276.8c13.3 9.9 15.9 28.8 6 42-5.9 7.9-14.9 12-24 12z m1.7 0c-9.1 0-18.1-4.1-24-12-9.9-13.3-7.3-32.1 6-42l368.9-276.8c13.3-9.9 32.1-7.3 42 6 9.9 13.3 7.3 32.1-6 42L529 597.5c-5.4 4.1-11.7 6-18 6zM129.3 707.9c-9.1 0-18.1-4.1-24-12-9.9-13.3-7.3-32.1 6-42l249.9-187.5c13.3-9.9 32.1-7.3 42 6 9.9 13.3 7.3 32.1-6 42L147.3 701.8c-5.4 4.1-11.7 6.1-18 6.1z m750.8-5.9c-6.3 0-12.6-2-18-6L612.3 508.5c-13.3-9.9-15.9-28.8-6-42 9.9-13.3 28.8-15.9 42-6L898.1 648c13.3 9.9 15.9 28.8 6 42-5.9 7.9-14.9 12-24 12z" p-id="1682" fill="#ffffff"></path></svg>